# xmcd
#
# Track frame offsets:
# 150
# 15592
# 32862
# 55913
# 73806
# 90674
# 110424
# 128987
# 151127
# 167029
# 180167
# 201300
#
# Disc length: 3001 seconds
#
#
# Revision: 0
# Processed by: cddbd v1.5.2PL0 Copyright (c) Steve Scherf et al.
# Submitted via: FreeRIP 2.96 
#
DISCID=9b0bb70c
DTITLE=Fat Joe - Me, Myself and I
DYEAR=2006
DGENRE=Rap
TTITLE0=Pendemic
TTITLE1=Damn
TTITLE2=The Profit (ft. Li'l Wayne)
TTITLE3=No Drama
TTITLE4=Breathe and Stop (ft. The Game)
TTITLE5=She's My Mama
TTITLE6=Make It Rain (ft. Lil' Wayne)
TTITLE7=Jealousy
TTITLE8=Think About It
TTITLE9=Hard Not 2 Kill
TTITLE10=Bendicion Mami
TTITLE11=Story To Tell
EXTD=
EXTT0=
EXTT1=
EXTT2=
EXTT3=
EXTT4=
EXTT5=
EXTT6=
EXTT7=
EXTT8=
EXTT9=
EXTT10=
EXTT11=
PLAYORDER=
